<?xml version="1.0" standalone="no"?>
<!DOCTYPE svg PUBLIC "-//W3C//DTD SVG 20010904//EN"
 "http://www.w3.org/TR/2001/REC-SVG-20010904/DTD/svg10.dtd">
<svg version="1.0" xmlns="http://www.w3.org/2000/svg"
 width="608.000000pt" height="660.000000pt" viewBox="0 0 608.000000 660.000000"
 preserveAspectRatio="xMidYMid meet">
<metadata>
Created by potrace 1.16, written by Peter Selinger 2001-2019
</metadata>
<g transform="translate(0.000000,660.000000) scale(0.100000,-0.100000)"
fill="#ffffff" stroke="#b96600">
<path d="M2786 6072 c-3 -2 -42 -6 -88 -8 -124 -5 -294 -29 -403 -57 -11 -3
-49 -12 -85 -21 -36 -9 -72 -20 -80 -23 -8 -3 -17 -7 -20 -7 -3 -1 -11 -5 -17
-9 -7 -5 -13 -6 -13 -3 0 3 -17 -2 -37 -11 -21 -8 -49 -20 -63 -26 -14 -6 -28
-10 -32 -9 -5 1 -8 -3 -8 -8 0 -5 -3 -9 -7 -8 -5 0 -25 -6 -45 -15 -21 -10
-42 -17 -48 -17 -5 0 -36 -13 -67 -29 -32 -16 -78 -39 -103 -51 -25 -12 -56
-32 -70 -44 -14 -12 -42 -30 -63 -39 -46 -21 -103 -64 -172 -132 -28 -27 -71
-67 -94 -87 -24 -21 -41 -38 -38 -38 8 0 -62 -79 -106 -120 -34 -30 -210 -208
-259 -261 -10 -11 -18 -22 -18 -25 0 -3 -25 -36 -55 -72 -31 -37 -60 -72 -65
-79 -6 -7 -10 -16 -10 -20 0 -5 -11 -21 -25 -36 -14 -15 -22 -27 -18 -27 4 0
4 -4 -2 -8 -15 -10 -33 -41 -57 -94 -11 -27 -25 -48 -29 -48 -5 0 -9 -6 -9
-14 0 -7 -20 -57 -45 -110 -24 -53 -42 -96 -39 -96 2 0 -4 -17 -15 -37 -10
-21 -22 -54 -26 -73 -4 -19 -11 -39 -15 -45 -5 -5 -10 -23 -13 -40 -3 -16 -10
-43 -17 -60 -6 -16 -11 -32 -11 -35 0 -3 -4 -21 -10 -40 -5 -19 -14 -57 -19
-85 -5 -27 -12 -61 -15 -75 -3 -14 -7 -36 -10 -50 -2 -14 -7 -41 -11 -60 -3
-19 -8 -53 -10 -75 -1 -22 -6 -71 -9 -110 -19 -211 -3 -523 41 -770 20 -117
24 -137 31 -170 10 -42 10 -45 13 -47 1 -2 3 -10 5 -18 6 -26 48 -165 58 -190
3 -8 11 -36 17 -63 7 -26 17 -50 22 -53 4 -3 6 -10 3 -15 -4 -5 -1 -9 4 -9 6
0 11 -7 11 -17 0 -9 12 -41 26 -71 15 -31 27 -61 28 -66 1 -6 12 -28 24 -47
12 -20 22 -40 22 -44 0 -13 58 -131 71 -146 8 -8 22 -30 31 -49 16 -32 57 -92
108 -160 11 -14 18 -27 17 -30 -1 -5 15 -24 78 -94 19 -21 35 -40 35 -43 0 -3
12 -17 28 -32 15 -16 43 -46 64 -67 51 -55 135 -134 142 -134 3 0 14 -8 24
-18 40 -38 71 -59 152 -106 47 -27 88 -54 92 -60 5 -6 8 -7 8 -1 0 6 3 5 8 -1
9 -14 74 -49 85 -46 4 1 7 -3 7 -9 0 -5 4 -7 10 -4 5 3 10 2 10 -4 0 -5 13
-12 30 -16 16 -4 30 -11 30 -16 0 -6 6 -9 13 -8 6 1 25 -3 40 -9 16 -7 34 -12
41 -12 6 0 17 -5 24 -12 7 -7 12 -9 12 -6 0 4 21 -2 48 -14 26 -11 67 -29 92
-40 25 -10 54 -24 65 -30 11 -6 33 -13 49 -15 17 -2 32 -7 36 -12 3 -6 21 -13
39 -16 19 -3 38 -8 43 -11 11 -7 107 -33 142 -39 16 -2 36 -11 45 -19 9 -8 27
-21 41 -28 14 -8 41 -24 60 -36 19 -11 37 -21 40 -21 3 0 36 -16 75 -35 38
-20 75 -36 82 -36 7 0 27 -8 46 -19 18 -10 49 -22 68 -26 19 -4 39 -11 44 -15
6 -4 30 -11 54 -14 24 -3 49 -10 55 -15 7 -6 21 -8 31 -7 11 2 31 -1 45 -6 13
-5 43 -11 65 -13 22 -2 40 -4 40 -5 0 -1 19 -3 43 -5 23 -2 46 -6 50 -9 4 -3
14 -1 21 4 8 4 26 4 41 0 15 -4 34 -3 43 2 11 6 17 5 17 -2 0 -6 4 -9 9 -6 8
5 77 10 296 22 182 9 290 27 435 72 30 9 59 16 64 14 4 -1 14 3 22 9 8 6 14 8
14 3 0 -4 5 -3 12 4 7 7 21 12 33 12 12 0 26 5 32 11 6 6 16 10 22 8 6 -2 -42
-58 -107 -125 -164 -168 -271 -291 -352 -404 -39 -54 -70 -100 -70 -104 0 -3
18 -6 40 -6 36 0 42 4 67 43 38 58 166 216 249 308 135 148 397 408 405 403 5
-3 9 0 9 5 0 6 6 11 13 11 14 0 97 57 109 75 4 5 11 10 15 10 8 0 26 14 87 71
20 19 42 34 48 34 6 0 8 3 5 6 -7 8 31 44 45 44 5 0 6 5 3 10 -3 6 5 14 19 20
14 5 26 14 26 20 0 5 32 43 71 82 39 40 71 74 71 75 -1 3 45 55 115 130 35 37
70 82 78 100 9 18 25 38 36 43 11 6 17 15 14 19 -3 5 9 23 25 41 17 18 30 38
30 46 0 8 4 14 8 14 5 0 15 12 23 27 14 28 52 89 66 108 5 6 17 27 28 47 11
21 24 38 29 38 5 0 6 3 3 6 -7 7 29 80 51 103 7 7 16 26 19 42 3 16 10 29 15
29 5 0 7 4 4 8 -2 4 7 30 21 57 13 27 34 77 45 110 11 33 25 66 31 73 5 6 6
12 3 12 -4 0 -1 10 6 22 6 13 13 31 15 41 2 10 10 31 18 46 8 16 17 44 20 62
3 19 12 57 20 84 8 28 16 64 19 82 2 17 6 36 9 40 3 5 8 27 11 48 3 22 8 58
11 80 6 38 8 52 21 155 3 25 7 73 7 107 1 35 4 63 7 63 8 0 3 97 -5 110 -3 5
-3 10 2 10 15 0 22 376 9 530 -10 117 -11 131 -20 152 -4 9 -5 21 -2 27 4 5 2
12 -3 16 -5 3 -8 14 -6 25 2 11 1 20 -3 20 -4 0 -8 9 -9 20 -1 11 -14 59 -29
107 -15 49 -29 97 -31 107 -2 11 -8 25 -14 32 -5 6 -11 20 -13 30 -6 29 -23
64 -61 129 -58 99 -92 168 -100 205 -9 40 -103 240 -113 240 -4 0 -15 19 -25
42 -22 50 -139 216 -196 277 -23 24 -41 46 -41 49 0 3 -11 15 -25 28 -14 13
-25 28 -25 34 0 6 -4 9 -9 6 -5 -3 -12 1 -15 10 -4 9 -9 14 -12 12 -3 -3 -30
21 -61 53 -32 32 -59 56 -61 54 -3 -3 -14 6 -26 18 -27 30 -92 77 -105 77 -5
0 -14 6 -18 13 -8 12 -68 57 -77 57 -3 0 -36 20 -73 45 -37 25 -72 45 -79 45
-6 0 -17 7 -24 15 -7 9 -15 14 -17 11 -3 -2 -32 11 -65 30 -34 19 -93 48 -132
65 -39 16 -86 36 -104 44 -18 8 -42 15 -53 15 -11 0 -33 7 -49 15 -17 9 -30
13 -30 10 0 -2 -24 5 -52 16 -29 11 -54 20 -55 20 -2 -1 -4 -1 -5 0 -2 0 -10
2 -18 4 -8 1 -38 10 -67 18 -28 8 -54 13 -56 10 -3 -3 -12 -1 -19 3 -16 10
-29 13 -88 20 -54 7 -85 12 -85 14 0 1 -14 3 -30 5 -27 3 -200 34 -370 67 -55
11 -440 19 -449 10z m1391 -1635 c-2 -39 -14 -124 -25 -187 -11 -63 -26 -151
-33 -195 -6 -44 -12 -84 -14 -90 -2 -13 -12 -76 -30 -210 -9 -60 -20 -135 -25
-165 -5 -30 -11 -89 -15 -130 -14 -169 -29 -199 -147 -293 -166 -133 -249 -84
-380 222 l-14 34 -28 -115 c-27 -115 -49 -164 -67 -153 -5 4 -9 0 -9 -8 0 -7
-12 -20 -27 -28 -16 -8 -32 -20 -36 -26 -4 -7 -15 -13 -23 -13 -8 0 -23 -5
-33 -12 -10 -6 -25 -9 -34 -5 -17 6 -47 123 -47 184 0 21 -6 70 -14 108 -17
86 -24 164 -36 420 -6 128 -17 234 -30 295 -24 116 -25 166 -4 188 15 15 17
15 29 -1 12 -16 13 -16 18 4 4 14 11 20 21 16 8 -3 18 -1 22 5 4 7 9 6 15 -3
7 -11 9 -11 9 -1 0 7 -7 15 -15 18 -19 8 -9 24 15 24 51 0 100 -137 115 -322
6 -77 16 -174 20 -193 2 -12 9 -63 15 -114 6 -52 13 -98 16 -102 3 -5 16 4 30
20 33 39 182 112 212 104 23 -5 69 -90 85 -155 4 -15 17 -44 29 -64 l22 -38
17 100 c41 251 50 305 64 394 17 111 24 177 30 280 5 93 24 139 72 177 60 47
101 66 88 41 -4 -7 5 1 19 17 24 28 25 28 21 7 -4 -22 -3 -22 23 5 15 17 39
30 56 31 l28 2 -5 -73z m-1813 -12 c-6 -15 13 -40 31 -40 6 0 20 -7 32 -15 23
-17 25 -36 39 -340 3 -83 16 -190 34 -280 15 -80 33 -179 39 -220 29 -202 71
-331 123 -380 l20 -19 -26 -26 c-14 -14 -31 -23 -38 -19 -6 4 -8 3 -5 -3 6
-10 -30 -36 -113 -82 -31 -18 -100 -31 -100 -20 0 5 -6 6 -14 3 -9 -3 -33 18
-65 56 -55 66 -84 143 -117 310 -9 47 -18 87 -20 89 -1 1 -32 -11 -68 -28 -37
-17 -70 -31 -74 -31 -4 0 -27 -42 -51 -92 -36 -77 -57 -106 -123 -172 -43 -43
-81 -76 -84 -73 -3 3 -26 -5 -51 -19 -51 -26 -83 -30 -101 -12 -20 20 -13 43
22 72 32 25 111 167 131 236 4 14 16 41 26 61 10 21 39 111 64 200 25 90 56
187 70 214 13 28 41 93 61 145 20 52 47 123 60 158 24 63 91 194 125 243 18
26 125 88 114 66 -3 -6 2 -2 12 10 21 25 56 32 47 8z m2108 -86 c30 -14 49
-41 80 -114 25 -60 37 -99 98 -315 41 -146 77 -261 100 -325 25 -66 50 -184
50 -232 0 -44 -38 -87 -86 -99 -16 -4 -35 -11 -42 -17 -9 -7 -17 -6 -25 2 -13
12 -67 109 -139 248 l-42 82 -33 -15 c-18 -8 -49 -21 -69 -29 -26 -12 -40 -27
-55 -63 -48 -113 -81 -168 -114 -189 -22 -14 -32 -18 -29 -9 10 25 -13 26 -24
1 -13 -29 -27 -32 -36 -9 -11 29 -6 167 8 228 15 64 33 154 42 202 3 16 12 54
20 84 46 164 55 215 63 348 9 160 7 156 96 191 28 11 46 20 40 21 -5 0 -3 5 5
10 20 13 64 13 92 -1z m-1583 -41 c34 -106 72 -564 68 -829 -2 -187 -4 -209
-21 -228 -10 -11 -23 -18 -27 -15 -5 3 -9 -4 -9 -16 0 -12 -4 -18 -10 -15 -5
3 -10 1 -10 -4 0 -6 -6 -11 -13 -11 -8 0 -22 -9 -32 -20 -10 -11 -26 -20 -35
-20 -10 0 -23 -7 -30 -15 -15 -19 -34 -19 -49 -2 -16 20 -34 112 -37 183 -1
33 -8 85 -17 115 -8 30 -18 77 -21 104 -3 28 -9 61 -12 75 -4 14 -8 95 -10
180 -2 85 -5 217 -8 292 l-4 137 31 24 c41 31 77 43 77 25 0 -7 11 0 24 15 14
16 29 26 34 23 6 -3 12 0 15 8 5 13 28 21 69 25 10 1 20 -11 27 -31z m2631
-1017 c0 -12 9 -21 25 -25 33 -8 35 -53 3 -65 -24 -9 -151 -22 -443 -46 -385
-32 -1174 -120 -1605 -180 -427 -59 -577 -77 -1125 -136 -258 -28 -603 -68
-765 -89 -354 -47 -629 -74 -688 -67 -52 6 -70 20 -53 40 9 11 27 13 74 10 72
-6 279 15 627 62 135 19 371 47 525 64 154 17 424 47 600 66 176 19 399 46
495 59 470 67 541 76 625 85 50 5 308 35 575 65 267 30 595 64 730 76 402 34
370 28 370 60 0 15 3 30 7 33 12 13 23 7 23 -12z m-900 -586 c0 -9 -7 -29 -15
-45 -14 -28 -42 -187 -34 -195 2 -2 36 0 74 5 83 9 99 0 92 -45 -4 -24 0 -34
14 -43 15 -10 19 -24 19 -70 l1 -57 29 32 c16 18 34 51 41 75 40 149 64 225
76 238 11 12 13 11 13 -12 0 -14 -11 -74 -25 -132 -14 -58 -25 -118 -24 -133
0 -32 -4 -37 63 70 36 57 39 60 52 42 10 -13 12 -34 8 -72 -6 -50 -6 -53 16
-53 35 0 80 37 80 68 0 30 34 105 56 123 12 10 18 9 31 -4 14 -14 14 -22 3
-62 -7 -25 -22 -57 -33 -71 -17 -22 -18 -27 -6 -35 37 -23 116 -2 167 44 l22
20 0 -25 c0 -31 -46 -74 -107 -102 -46 -20 -82 -17 -112 13 -17 17 -19 17 -51
-6 -19 -13 -46 -23 -61 -23 -40 0 -53 22 -45 78 l6 47 -30 -54 c-49 -88 -78
-111 -97 -76 -7 12 -15 9 -43 -20 -19 -19 -39 -35 -46 -35 -19 0 -26 36 -19
90 9 66 -7 70 -45 10 -56 -88 -123 -116 -155 -66 -12 18 -16 45 -14 98 2 51
-1 73 -9 72 -7 -1 -20 -2 -30 -2 -17 -2 -94 -139 -107 -194 -4 -16 -12 -28
-17 -28 -19 0 -2 73 34 147 20 40 31 74 25 76 -18 6 2 55 24 59 15 2 38 36 85
127 36 68 67 128 70 133 9 14 24 9 24 -7z m-718 -120 c2 -3 -1 -51 -8 -107 -7
-57 -13 -113 -14 -126 l0 -23 29 22 c48 35 61 21 61 -66 0 -67 2 -75 19 -75
23 0 76 58 96 105 17 42 40 48 30 8 -19 -77 -93 -173 -133 -173 -37 0 -54 40
-46 109 4 41 3 61 -4 61 -13 0 -48 -47 -62 -84 -20 -53 -32 -29 -28 54 2 51 0
72 -5 58 -19 -53 -69 -147 -87 -163 -11 -10 -26 -15 -36 -11 -13 5 -16 17 -12
66 2 33 3 60 2 60 -1 0 -19 -25 -39 -55 -38 -58 -77 -91 -95 -80 -5 3 -10 25
-10 48 l0 42 -19 -30 c-10 -16 -28 -38 -39 -49 -20 -17 -22 -17 -28 -2 -4 11
3 27 19 44 14 15 40 64 57 110 18 45 37 82 42 82 7 0 9 -31 5 -96 -5 -96 -5
-96 15 -77 11 10 39 47 63 83 34 51 44 78 49 125 4 32 15 73 24 90 19 32 50
45 62 25 9 -14 -5 -71 -26 -112 -16 -30 -9 -34 30 -17 26 12 49 58 60 122 6
34 15 44 28 32z m-371 -138 c-8 -8 -11 -5 -11 9 0 27 14 41 18 19 2 -9 -1 -22
-7 -28z m-1400 -10 c-8 -8 -11 -5 -11 9 0 27 14 41 18 19 2 -9 -1 -22 -7 -28z
m-554 -52 c-4 -36 -18 -93 -33 -128 -48 -115 -56 -141 -49 -174 3 -18 10 -33
15 -33 14 0 78 67 94 98 7 15 16 60 20 100 11 107 56 202 97 202 15 0 19 -7
19 -33 0 -38 -27 -122 -59 -185 -27 -54 -28 -122 -1 -147 19 -17 42 -17 83 0
22 9 24 -27 1 -49 -44 -44 -106 -27 -133 36 -16 38 -19 41 -25 21 -9 -29 -82
-93 -106 -93 -23 0 -40 28 -40 66 l0 27 -22 -29 c-42 -57 -92 -104 -110 -104
-26 0 -31 37 -19 137 17 140 15 148 -24 71 -64 -124 -109 -176 -142 -164 -13
5 -15 16 -9 62 20 173 93 344 147 344 22 0 49 -37 49 -67 0 -12 5 -25 11 -29
9 -5 10 -49 5 -158 l-7 -151 25 24 c55 51 103 143 115 216 12 69 35 154 53
188 5 9 18 17 30 17 20 0 21 -4 15 -65z m1610 -27 c-4 -24 -9 -65 -12 -93 l-7
-50 39 67 c82 145 113 150 113 17 0 -114 27 -104 59 22 19 76 41 103 41 51 0
-73 -62 -212 -95 -212 -27 0 -45 43 -45 108 0 41 -4 61 -10 57 -6 -4 -27 -39
-46 -78 -72 -144 -89 -142 -80 8 8 129 11 145 33 145 13 0 15 -8 10 -42z
m2269 -5 c-5 -12 -10 -13 -17 -6 -8 8 -7 18 2 34 12 21 14 22 17 6 2 -10 1
-25 -2 -34z m-3057 -47 c7 -8 15 -30 18 -49 l5 -35 36 40 c23 26 42 38 56 36
18 -3 22 -12 28 -71 3 -38 9 -75 12 -83 18 -46 111 29 142 115 34 90 47 70 18
-28 -25 -87 -120 -175 -163 -152 -25 14 -33 34 -40 111 l-6 65 -33 -35 c-18
-19 -42 -61 -54 -92 -11 -32 -25 -58 -29 -58 -10 0 -10 -1 -12 104 -1 50 -6
81 -14 83 -6 2 -28 -28 -49 -67 -35 -67 -103 -140 -130 -140 -28 0 -36 29 -29
107 9 103 22 153 41 153 22 0 29 -28 11 -48 -21 -24 -34 -152 -15 -152 25 0
76 56 107 118 45 88 73 111 100 78z"/>
<path d="M2151 3690 c-1 -3 -15 -45 -31 -94 -17 -49 -28 -91 -25 -94 2 -3 22
2 42 10 l38 14 -2 60 c-1 32 -6 70 -12 84 -5 14 -10 23 -10 20z"/>
<path d="M4372 3745 c-16 -87 -17 -86 23 -83 26 1 34 6 31 18 -24 88 -37 130
-39 130 -1 0 -8 -29 -15 -65z"/>
<path d="M4516 2482 c-19 -38 -14 -54 10 -30 9 8 14 26 12 39 -3 23 -4 22 -22
-9z"/>
<path d="M4604 2399 c-41 -10 -42 -10 -48 -62 -8 -58 -2 -83 20 -91 21 -8 46
7 78 45 25 29 25 32 10 44 -13 9 -15 20 -11 43 4 18 3 32 -1 31 -4 -1 -26 -5
-48 -10z"/>
<path d="M3773 2355 c-29 -12 -31 -17 -35 -73 -2 -49 -1 -58 10 -49 23 19 79
137 64 137 -4 -1 -21 -7 -39 -15z"/>
<path d="M1687 2358 c-9 -20 -20 -51 -23 -70 -5 -29 -2 -26 21 20 14 29 25 61
23 70 -2 12 -9 5 -21 -20z"/>
<path d="M1531 2345 c-1 -11 -4 -31 -6 -45 l-6 -25 11 25 c6 13 9 33 7 45 -4
19 -4 19 -6 0z"/>
<path d="M1241 2322 c-22 -32 -65 -171 -74 -240 l-5 -44 24 23 c27 25 34 37
83 138 31 64 36 87 25 129 -8 30 -29 28 -53 -6z"/>
<path d="M4595 249 c-86 -10 -217 -47 -333 -95 -186 -78 -269 -112 -312 -132
l-45 -21 75 0 c65 -1 86 4 155 35 127 56 310 122 383 139 67 16 183 22 202 10
20 -12 10 -54 -25 -101 -62 -87 -62 -84 -11 -84 44 0 46 1 76 53 16 29 30 67
30 85 0 35 -20 81 -42 99 -20 16 -76 20 -153 12z"/>
</g>
</svg>
